<?xml version="1.0" encoding="UTF-8"?>
<svg width="40px" height="40px" viewBox="0 0 40 40" version="1.1" xmlns="http://www.w3.org/2000/svg" xmlns:xlink="http://www.w3.org/1999/xlink">
    <g id="general" stroke="none" stroke-width="1" fill="none" fill-rule="evenodd">
        <rect id="Rectangle" fill="#101010" x="0" y="0" width="40" height="40"></rect>
        <path d="M18.54,27.67 L21.87,27.67 L21.87,31 L18.54,31 L18.54,27.67 Z M13.65,16.27 C13.6299999,15.2499949 13.7749985,14.3000044 14.085,13.42 C14.3950015,12.5399956 14.8399971,11.7750033 15.42,11.125 C16.0000029,10.4749968 16.7099958,9.9700018 17.55,9.61 C18.3900042,9.2499982 19.3299948,9.07 20.37,9.07 C21.3100047,9.07 22.1649962,9.20499865 22.935,9.475 C23.7050038,9.74500135 24.3699972,10.1349975 24.93,10.645 C25.4900028,11.1550025 25.9249985,11.7799963 26.235,12.52 C26.5450015,13.2600037 26.7,14.1099952 26.7,15.07 C26.7,15.6900031 26.6250007,16.2449976 26.475,16.735 C26.3249992,17.2250024 26.1300012,17.669998 25.89,18.07 C25.6499988,18.470002 25.3750016,18.8399983 25.065,19.18 C24.7549984,19.5200017 24.4400016,19.8499984 24.12,20.17 C23.7999984,20.4700015 23.4850015,20.7749985 23.175,21.085 C22.8649985,21.3950016 22.5850012,21.7249983 22.335,22.075 C22.0849988,22.4250017 21.8850007,22.804998 21.735,23.215 C21.5849992,23.625002 21.51,24.0899974 21.51,24.61 L21.51,25.78 L18.96,25.78 L18.96,24.37 C19.0000002,23.5299958 19.1549986,22.815003 19.425,22.225 C19.6950013,21.634997 20.0249981,21.1100023 20.415,20.65 C20.8050019,20.1899977 21.2149978,19.765002 21.645,19.375 C22.0750021,18.984998 22.4749981,18.5750021 22.845,18.145 C23.2150019,17.7149979 23.5099989,17.2400026 23.73,16.72 C23.9500011,16.1999974 24.0400002,15.5700037 24,14.83 C23.9199996,13.7299945 23.5650031,12.8700031 22.935,12.25 C22.3049969,11.6299969 21.4500054,11.32 20.37,11.32 C19.6499964,11.32 19.0300026,11.4499987 18.51,11.71 C17.9899974,11.9700013 17.5550017,12.3199978 17.205,12.76 C16.8549983,13.2000022 16.6000008,13.719997 16.44,14.32 C16.2799992,14.920003 16.2,15.5699965 16.2,16.27 L13.65,16.27 Z" id="?" fill="#CDCDCD"></path>
    </g>
</svg>
